<mxfile host="Electron" modified="2024-05-04T16:48:57.648Z" agent="Mozilla/5.0 (Windows NT 10.0; Win64; x64) AppleWebKit/537.36 (KHTML, like Gecko) draw.io/22.0.3 Chrome/114.0.5735.289 Electron/25.8.4 Safari/537.36" etag="YhS0fdsDpota_F5ErMhB" version="22.0.3" type="device">
  <diagram name="Страница — 1" id="2iGDmq69TocVkluDc-hZ">
    <mxGraphModel dx="8095" dy="7732" grid="1" gridSize="10" guides="1" tooltips="1" connect="1" arrows="1" fold="1" page="1" pageScale="1" pageWidth="827" pageHeight="1169" math="0" shadow="0">
      <root>
        <mxCell id="0" />
        <mxCell id="1" parent="0" />
        <mxCell id="OsrXYmDs21O4-yx2xXHt-127" value="" style="rounded=1;whiteSpace=wrap;html=1;strokeColor=#b85450;fillColor=#f8cecc;fontSize=24;align=center;opacity=60;" vertex="1" parent="1">
          <mxGeometry x="1244" y="-2320" width="730" height="790" as="geometry" />
        </mxCell>
        <mxCell id="OsrXYmDs21O4-yx2xXHt-4" value="Здание №1" style="rounded=1;whiteSpace=wrap;html=1;strokeColor=none;fillColor=#BAC8D3;fontSize=24;fontColor=#23445D;align=center;opacity=60;" vertex="1" parent="1">
          <mxGeometry x="-2320" y="-1910" width="1570" height="790" as="geometry" />
        </mxCell>
        <mxCell id="OsrXYmDs21O4-yx2xXHt-5" value="Здание №2" style="rounded=1;whiteSpace=wrap;html=1;strokeColor=none;fillColor=#BAC8D3;fontSize=24;fontColor=#23445D;align=center;opacity=60;labelPosition=center;verticalLabelPosition=middle;verticalAlign=middle;" vertex="1" parent="1">
          <mxGeometry x="-710" y="-1050" width="1640" height="1930" as="geometry" />
        </mxCell>
        <mxCell id="OsrXYmDs21O4-yx2xXHt-8" value="" style="shape=mxgraph.cisco.switches.layer_3_switch;html=1;dashed=0;fillColor=#10739E;strokeColor=#ffffff;strokeWidth=2;verticalLabelPosition=bottom;verticalAlign=top;fontFamily=Helvetica;fontSize=36;fontColor=#FFB366" vertex="1" parent="1">
          <mxGeometry x="-650" y="-185" width="200" height="200" as="geometry" />
        </mxCell>
        <mxCell id="OsrXYmDs21O4-yx2xXHt-9" value="" style="shape=mxgraph.cisco.servers.standard_host;sketch=0;html=1;pointerEvents=1;dashed=0;fillColor=#036897;strokeColor=#ffffff;strokeWidth=2;verticalLabelPosition=bottom;verticalAlign=top;align=center;outlineConnect=0;" vertex="1" parent="1">
          <mxGeometry x="-290" y="-590" width="220" height="262" as="geometry" />
        </mxCell>
        <mxCell id="OsrXYmDs21O4-yx2xXHt-11" value="" style="endArrow=classic;startArrow=classic;html=1;rounded=0;strokeColor=#FF0000;strokeWidth=3;entryX=0;entryY=1;entryDx=0;entryDy=0;entryPerimeter=0;exitX=1;exitY=0;exitDx=0;exitDy=0;exitPerimeter=0;" edge="1" parent="1" source="OsrXYmDs21O4-yx2xXHt-8" target="OsrXYmDs21O4-yx2xXHt-9">
          <mxGeometry width="50" height="50" relative="1" as="geometry">
            <mxPoint x="450" y="-380" as="sourcePoint" />
            <mxPoint x="580" y="-450" as="targetPoint" />
          </mxGeometry>
        </mxCell>
        <mxCell id="OsrXYmDs21O4-yx2xXHt-12" value="" style="endArrow=none;dashed=1;html=1;rounded=0;strokeWidth=3;exitX=1.012;exitY=0.642;exitDx=0;exitDy=0;exitPerimeter=0;" edge="1" parent="1" source="OsrXYmDs21O4-yx2xXHt-8">
          <mxGeometry width="50" height="50" relative="1" as="geometry">
            <mxPoint x="710" y="-160.77" as="sourcePoint" />
            <mxPoint x="1090" y="-60" as="targetPoint" />
          </mxGeometry>
        </mxCell>
        <mxCell id="OsrXYmDs21O4-yx2xXHt-13" value="&lt;span style=&quot;font-size: 24px;&quot;&gt;2 ШТ&lt;/span&gt;" style="text;html=1;align=center;verticalAlign=middle;resizable=0;points=[];autosize=1;strokeColor=none;fillColor=none;" vertex="1" parent="1">
          <mxGeometry x="1015" y="-105" width="80" height="40" as="geometry" />
        </mxCell>
        <mxCell id="OsrXYmDs21O4-yx2xXHt-14" value="" style="shape=mxgraph.cisco.routers.router;sketch=0;html=1;pointerEvents=1;dashed=0;fillColor=#036897;strokeColor=#ffffff;strokeWidth=2;verticalLabelPosition=bottom;verticalAlign=top;align=center;outlineConnect=0;" vertex="1" parent="1">
          <mxGeometry x="-110" y="33.5" width="220" height="173" as="geometry" />
        </mxCell>
        <mxCell id="OsrXYmDs21O4-yx2xXHt-15" value="" style="shape=mxgraph.cisco.servers.standard_host;sketch=0;html=1;pointerEvents=1;dashed=0;fillColor=#036897;strokeColor=#ffffff;strokeWidth=2;verticalLabelPosition=bottom;verticalAlign=top;align=center;outlineConnect=0;" vertex="1" parent="1">
          <mxGeometry x="-110" y="350" width="220" height="262" as="geometry" />
        </mxCell>
        <mxCell id="OsrXYmDs21O4-yx2xXHt-16" value="" style="shape=mxgraph.cisco.switches.workgroup_switch;html=1;dashed=0;fillColor=#10739E;strokeColor=#ffffff;strokeWidth=2;verticalLabelPosition=bottom;verticalAlign=top;fontFamily=Helvetica;fontSize=36;fontColor=#FFB366" vertex="1" parent="1">
          <mxGeometry x="350" y="50" width="270" height="140" as="geometry" />
        </mxCell>
        <mxCell id="OsrXYmDs21O4-yx2xXHt-17" value="" style="shape=mxgraph.cisco.computers_and_peripherals.printer;sketch=0;html=1;pointerEvents=1;dashed=0;fillColor=#036897;strokeColor=#ffffff;strokeWidth=2;verticalLabelPosition=bottom;verticalAlign=top;align=center;outlineConnect=0;" vertex="1" parent="1">
          <mxGeometry x="284.5" y="-340" width="401" height="204" as="geometry" />
        </mxCell>
        <mxCell id="OsrXYmDs21O4-yx2xXHt-18" value="" style="shape=mxgraph.cisco.computers_and_peripherals.terminal;sketch=0;html=1;pointerEvents=1;dashed=0;fillColor=#036897;strokeColor=#ffffff;strokeWidth=2;verticalLabelPosition=bottom;verticalAlign=top;align=center;outlineConnect=0;" vertex="1" parent="1">
          <mxGeometry x="360" y="386" width="250" height="190" as="geometry" />
        </mxCell>
        <mxCell id="OsrXYmDs21O4-yx2xXHt-22" value="" style="endArrow=classic;startArrow=classic;html=1;rounded=0;strokeColor=#00CC00;strokeWidth=3;entryX=0.5;entryY=1;entryDx=0;entryDy=0;entryPerimeter=0;exitX=0.5;exitY=0;exitDx=0;exitDy=0;exitPerimeter=0;" edge="1" parent="1" source="OsrXYmDs21O4-yx2xXHt-16" target="OsrXYmDs21O4-yx2xXHt-17">
          <mxGeometry width="50" height="50" relative="1" as="geometry">
            <mxPoint x="460" y="10" as="sourcePoint" />
            <mxPoint x="510" y="-40" as="targetPoint" />
          </mxGeometry>
        </mxCell>
        <mxCell id="OsrXYmDs21O4-yx2xXHt-24" value="" style="endArrow=classic;startArrow=classic;html=1;rounded=0;strokeWidth=3;strokeColor=#00CC00;entryX=0.5;entryY=0.98;entryDx=0;entryDy=0;entryPerimeter=0;exitX=0.5;exitY=0;exitDx=0;exitDy=0;exitPerimeter=0;" edge="1" parent="1" source="OsrXYmDs21O4-yx2xXHt-18" target="OsrXYmDs21O4-yx2xXHt-16">
          <mxGeometry width="50" height="50" relative="1" as="geometry">
            <mxPoint x="470" y="330" as="sourcePoint" />
            <mxPoint x="520" y="280" as="targetPoint" />
          </mxGeometry>
        </mxCell>
        <mxCell id="OsrXYmDs21O4-yx2xXHt-25" value="" style="endArrow=classic;startArrow=classic;html=1;rounded=0;strokeWidth=3;entryX=0;entryY=0.5;entryDx=0;entryDy=0;entryPerimeter=0;exitX=1;exitY=0.5;exitDx=0;exitDy=0;exitPerimeter=0;" edge="1" parent="1" source="OsrXYmDs21O4-yx2xXHt-14" target="OsrXYmDs21O4-yx2xXHt-16">
          <mxGeometry width="50" height="50" relative="1" as="geometry">
            <mxPoint x="190" y="150" as="sourcePoint" />
            <mxPoint x="240" y="100" as="targetPoint" />
          </mxGeometry>
        </mxCell>
        <mxCell id="OsrXYmDs21O4-yx2xXHt-26" value="" style="endArrow=classic;startArrow=classic;html=1;rounded=0;entryX=0.5;entryY=1;entryDx=0;entryDy=0;entryPerimeter=0;exitX=0.5;exitY=0;exitDx=0;exitDy=0;exitPerimeter=0;strokeWidth=3;strokeColor=#FF0000;" edge="1" parent="1" source="OsrXYmDs21O4-yx2xXHt-15" target="OsrXYmDs21O4-yx2xXHt-14">
          <mxGeometry width="50" height="50" relative="1" as="geometry">
            <mxPoint x="-30" y="310" as="sourcePoint" />
            <mxPoint x="20" y="260" as="targetPoint" />
          </mxGeometry>
        </mxCell>
        <mxCell id="OsrXYmDs21O4-yx2xXHt-27" value="" style="endArrow=classic;startArrow=classic;html=1;rounded=0;entryX=0;entryY=0.5;entryDx=0;entryDy=0;entryPerimeter=0;exitX=0.95;exitY=0.94;exitDx=0;exitDy=0;exitPerimeter=0;strokeWidth=3;" edge="1" parent="1" source="OsrXYmDs21O4-yx2xXHt-8" target="OsrXYmDs21O4-yx2xXHt-14">
          <mxGeometry width="50" height="50" relative="1" as="geometry">
            <mxPoint x="-370" y="160" as="sourcePoint" />
            <mxPoint x="-320" y="110" as="targetPoint" />
          </mxGeometry>
        </mxCell>
        <mxCell id="OsrXYmDs21O4-yx2xXHt-28" value="" style="shape=mxgraph.cisco.routers.router;sketch=0;html=1;pointerEvents=1;dashed=0;fillColor=#036897;strokeColor=#ffffff;strokeWidth=2;verticalLabelPosition=bottom;verticalAlign=top;align=center;outlineConnect=0;" vertex="1" parent="1">
          <mxGeometry x="-1660" y="-1370" width="220" height="173" as="geometry" />
        </mxCell>
        <mxCell id="OsrXYmDs21O4-yx2xXHt-29" value="" style="shape=mxgraph.cisco.servers.standard_host;sketch=0;html=1;pointerEvents=1;dashed=0;fillColor=#036897;strokeColor=#ffffff;strokeWidth=2;verticalLabelPosition=bottom;verticalAlign=top;align=center;outlineConnect=0;" vertex="1" parent="1">
          <mxGeometry x="-1165" y="-1414.5" width="220" height="262" as="geometry" />
        </mxCell>
        <mxCell id="OsrXYmDs21O4-yx2xXHt-30" value="" style="shape=mxgraph.cisco.switches.workgroup_switch;html=1;dashed=0;fillColor=#10739E;strokeColor=#ffffff;strokeWidth=2;verticalLabelPosition=bottom;verticalAlign=top;fontFamily=Helvetica;fontSize=36;fontColor=#FFB366" vertex="1" parent="1">
          <mxGeometry x="-1685" y="-1753" width="270" height="140" as="geometry" />
        </mxCell>
        <mxCell id="OsrXYmDs21O4-yx2xXHt-31" value="" style="shape=mxgraph.cisco.computers_and_peripherals.printer;sketch=0;html=1;pointerEvents=1;dashed=0;fillColor=#036897;strokeColor=#ffffff;strokeWidth=2;verticalLabelPosition=bottom;verticalAlign=top;align=center;outlineConnect=0;" vertex="1" parent="1">
          <mxGeometry x="-2268" y="-1785" width="401" height="204" as="geometry" />
        </mxCell>
        <mxCell id="OsrXYmDs21O4-yx2xXHt-32" value="" style="shape=mxgraph.cisco.computers_and_peripherals.terminal;sketch=0;html=1;pointerEvents=1;dashed=0;fillColor=#036897;strokeColor=#ffffff;strokeWidth=2;verticalLabelPosition=bottom;verticalAlign=top;align=center;outlineConnect=0;" vertex="1" parent="1">
          <mxGeometry x="-1180" y="-1780" width="250" height="190" as="geometry" />
        </mxCell>
        <mxCell id="OsrXYmDs21O4-yx2xXHt-33" value="" style="endArrow=classic;startArrow=classic;html=1;rounded=0;strokeWidth=3;entryX=0.08;entryY=0.05;entryDx=0;entryDy=0;entryPerimeter=0;exitX=0.5;exitY=1;exitDx=0;exitDy=0;exitPerimeter=0;" edge="1" parent="1" source="OsrXYmDs21O4-yx2xXHt-28" target="OsrXYmDs21O4-yx2xXHt-8">
          <mxGeometry width="50" height="50" relative="1" as="geometry">
            <mxPoint x="-1400" y="-650" as="sourcePoint" />
            <mxPoint x="-1350" y="-700" as="targetPoint" />
          </mxGeometry>
        </mxCell>
        <mxCell id="OsrXYmDs21O4-yx2xXHt-34" value="" style="endArrow=classic;startArrow=classic;html=1;rounded=0;strokeWidth=3;entryX=0.5;entryY=0.98;entryDx=0;entryDy=0;entryPerimeter=0;exitX=0.5;exitY=0;exitDx=0;exitDy=0;exitPerimeter=0;" edge="1" parent="1" source="OsrXYmDs21O4-yx2xXHt-28" target="OsrXYmDs21O4-yx2xXHt-30">
          <mxGeometry width="50" height="50" relative="1" as="geometry">
            <mxPoint x="-1600" y="-830" as="sourcePoint" />
            <mxPoint x="-1550" y="-880" as="targetPoint" />
          </mxGeometry>
        </mxCell>
        <mxCell id="OsrXYmDs21O4-yx2xXHt-35" value="" style="endArrow=classic;startArrow=classic;html=1;rounded=0;strokeColor=#FF0000;strokeWidth=3;entryX=0;entryY=0.5;entryDx=0;entryDy=0;entryPerimeter=0;exitX=1;exitY=0.5;exitDx=0;exitDy=0;exitPerimeter=0;" edge="1" parent="1" source="OsrXYmDs21O4-yx2xXHt-28" target="OsrXYmDs21O4-yx2xXHt-29">
          <mxGeometry width="50" height="50" relative="1" as="geometry">
            <mxPoint x="-1350" y="-1280" as="sourcePoint" />
            <mxPoint x="-1300" y="-1330" as="targetPoint" />
          </mxGeometry>
        </mxCell>
        <mxCell id="OsrXYmDs21O4-yx2xXHt-36" value="" style="endArrow=classic;startArrow=classic;html=1;rounded=0;entryX=0.15;entryY=0.5;entryDx=0;entryDy=0;entryPerimeter=0;exitX=0.98;exitY=0.5;exitDx=0;exitDy=0;exitPerimeter=0;strokeWidth=3;strokeColor=#00CC00;" edge="1" parent="1" source="OsrXYmDs21O4-yx2xXHt-30" target="OsrXYmDs21O4-yx2xXHt-32">
          <mxGeometry width="50" height="50" relative="1" as="geometry">
            <mxPoint x="-1260" y="-1980" as="sourcePoint" />
            <mxPoint x="-1210" y="-2030" as="targetPoint" />
          </mxGeometry>
        </mxCell>
        <mxCell id="OsrXYmDs21O4-yx2xXHt-37" value="" style="endArrow=classic;startArrow=classic;html=1;rounded=0;entryX=0;entryY=0.5;entryDx=0;entryDy=0;entryPerimeter=0;exitX=0.8;exitY=0.5;exitDx=0;exitDy=0;exitPerimeter=0;strokeColor=#00CC00;strokeWidth=3;" edge="1" parent="1" source="OsrXYmDs21O4-yx2xXHt-31" target="OsrXYmDs21O4-yx2xXHt-30">
          <mxGeometry width="50" height="50" relative="1" as="geometry">
            <mxPoint x="-1780" y="-2000" as="sourcePoint" />
            <mxPoint x="-1730" y="-2050" as="targetPoint" />
          </mxGeometry>
        </mxCell>
        <mxCell id="OsrXYmDs21O4-yx2xXHt-38" value="Здание №5" style="rounded=1;whiteSpace=wrap;html=1;strokeColor=none;fillColor=#BAC8D3;fontSize=24;fontColor=#23445D;align=center;opacity=60;direction=south;" vertex="1" parent="1">
          <mxGeometry x="-3550" y="-850" width="860" height="1570" as="geometry" />
        </mxCell>
        <mxCell id="OsrXYmDs21O4-yx2xXHt-39" value="" style="shape=mxgraph.cisco.routers.router;sketch=0;html=1;pointerEvents=1;dashed=0;fillColor=#036897;strokeColor=#ffffff;strokeWidth=2;verticalLabelPosition=bottom;verticalAlign=top;align=center;outlineConnect=0;" vertex="1" parent="1">
          <mxGeometry x="-2960" y="-170.5" width="220" height="173" as="geometry" />
        </mxCell>
        <mxCell id="OsrXYmDs21O4-yx2xXHt-40" value="" style="shape=mxgraph.cisco.servers.standard_host;sketch=0;html=1;pointerEvents=1;dashed=0;fillColor=#036897;strokeColor=#ffffff;strokeWidth=2;verticalLabelPosition=bottom;verticalAlign=top;align=center;outlineConnect=0;" vertex="1" parent="1">
          <mxGeometry x="-2960" y="-762" width="220" height="262" as="geometry" />
        </mxCell>
        <mxCell id="OsrXYmDs21O4-yx2xXHt-41" value="" style="shape=mxgraph.cisco.switches.workgroup_switch;html=1;dashed=0;fillColor=#10739E;strokeColor=#ffffff;strokeWidth=2;verticalLabelPosition=bottom;verticalAlign=top;fontFamily=Helvetica;fontSize=36;fontColor=#FFB366" vertex="1" parent="1">
          <mxGeometry x="-3450" y="-154" width="270" height="140" as="geometry" />
        </mxCell>
        <mxCell id="OsrXYmDs21O4-yx2xXHt-42" value="" style="shape=mxgraph.cisco.computers_and_peripherals.printer;sketch=0;html=1;pointerEvents=1;dashed=0;fillColor=#036897;strokeColor=#ffffff;strokeWidth=2;verticalLabelPosition=bottom;verticalAlign=top;align=center;outlineConnect=0;" vertex="1" parent="1">
          <mxGeometry x="-3515.5" y="330" width="401" height="204" as="geometry" />
        </mxCell>
        <mxCell id="OsrXYmDs21O4-yx2xXHt-43" value="" style="shape=mxgraph.cisco.computers_and_peripherals.terminal;sketch=0;html=1;pointerEvents=1;dashed=0;fillColor=#036897;strokeColor=#ffffff;strokeWidth=2;verticalLabelPosition=bottom;verticalAlign=top;align=center;outlineConnect=0;" vertex="1" parent="1">
          <mxGeometry x="-3440" y="-690" width="250" height="190" as="geometry" />
        </mxCell>
        <mxCell id="OsrXYmDs21O4-yx2xXHt-44" value="" style="endArrow=classic;startArrow=classic;html=1;rounded=0;strokeWidth=3;entryX=0.98;entryY=0.5;entryDx=0;entryDy=0;entryPerimeter=0;exitX=0;exitY=0.5;exitDx=0;exitDy=0;exitPerimeter=0;" edge="1" parent="1" source="OsrXYmDs21O4-yx2xXHt-39" target="OsrXYmDs21O4-yx2xXHt-41">
          <mxGeometry width="50" height="50" relative="1" as="geometry">
            <mxPoint x="-3150" y="620" as="sourcePoint" />
            <mxPoint x="-3100" y="570" as="targetPoint" />
          </mxGeometry>
        </mxCell>
        <mxCell id="OsrXYmDs21O4-yx2xXHt-45" value="" style="endArrow=classic;startArrow=classic;html=1;rounded=0;strokeColor=#FF0000;strokeWidth=3;entryX=0.5;entryY=1;entryDx=0;entryDy=0;entryPerimeter=0;exitX=0.5;exitY=0;exitDx=0;exitDy=0;exitPerimeter=0;" edge="1" parent="1" source="OsrXYmDs21O4-yx2xXHt-39" target="OsrXYmDs21O4-yx2xXHt-40">
          <mxGeometry width="50" height="50" relative="1" as="geometry">
            <mxPoint x="-2900" y="170" as="sourcePoint" />
            <mxPoint x="-2850" y="120" as="targetPoint" />
          </mxGeometry>
        </mxCell>
        <mxCell id="OsrXYmDs21O4-yx2xXHt-46" value="" style="endArrow=classic;startArrow=classic;html=1;rounded=0;entryX=0.5;entryY=1;entryDx=0;entryDy=0;entryPerimeter=0;exitX=0.5;exitY=0;exitDx=0;exitDy=0;exitPerimeter=0;strokeWidth=3;strokeColor=#00CC00;" edge="1" parent="1" source="OsrXYmDs21O4-yx2xXHt-41" target="OsrXYmDs21O4-yx2xXHt-43">
          <mxGeometry width="50" height="50" relative="1" as="geometry">
            <mxPoint x="-2810" y="-530" as="sourcePoint" />
            <mxPoint x="-2760" y="-580" as="targetPoint" />
          </mxGeometry>
        </mxCell>
        <mxCell id="OsrXYmDs21O4-yx2xXHt-47" value="" style="endArrow=classic;startArrow=classic;html=1;rounded=0;entryX=0.5;entryY=0.98;entryDx=0;entryDy=0;entryPerimeter=0;exitX=0.5;exitY=0;exitDx=0;exitDy=0;exitPerimeter=0;strokeColor=#00CC00;strokeWidth=3;" edge="1" parent="1" source="OsrXYmDs21O4-yx2xXHt-42" target="OsrXYmDs21O4-yx2xXHt-41">
          <mxGeometry width="50" height="50" relative="1" as="geometry">
            <mxPoint x="-3330" y="-550" as="sourcePoint" />
            <mxPoint x="-3280" y="-600" as="targetPoint" />
          </mxGeometry>
        </mxCell>
        <mxCell id="OsrXYmDs21O4-yx2xXHt-48" value="" style="endArrow=classic;startArrow=classic;html=1;rounded=0;strokeWidth=3;entryX=0;entryY=0.5;entryDx=0;entryDy=0;entryPerimeter=0;exitX=1;exitY=0.5;exitDx=0;exitDy=0;exitPerimeter=0;" edge="1" parent="1" source="OsrXYmDs21O4-yx2xXHt-39" target="OsrXYmDs21O4-yx2xXHt-8">
          <mxGeometry width="50" height="50" relative="1" as="geometry">
            <mxPoint x="-2156" y="-749" as="sourcePoint" />
            <mxPoint x="-1240" y="273" as="targetPoint" />
          </mxGeometry>
        </mxCell>
        <mxCell id="OsrXYmDs21O4-yx2xXHt-49" value="Здание №1" style="rounded=1;whiteSpace=wrap;html=1;strokeColor=none;fillColor=#BAC8D3;fontSize=24;fontColor=#23445D;align=center;opacity=60;" vertex="1" parent="1">
          <mxGeometry x="-3380" y="1543" width="1570" height="790" as="geometry" />
        </mxCell>
        <mxCell id="OsrXYmDs21O4-yx2xXHt-50" value="" style="shape=mxgraph.cisco.routers.router;sketch=0;html=1;pointerEvents=1;dashed=0;fillColor=#036897;strokeColor=#ffffff;strokeWidth=2;verticalLabelPosition=bottom;verticalAlign=top;align=center;outlineConnect=0;" vertex="1" parent="1">
          <mxGeometry x="-2720" y="1614.5" width="220" height="173" as="geometry" />
        </mxCell>
        <mxCell id="OsrXYmDs21O4-yx2xXHt-51" value="" style="shape=mxgraph.cisco.servers.standard_host;sketch=0;html=1;pointerEvents=1;dashed=0;fillColor=#036897;strokeColor=#ffffff;strokeWidth=2;verticalLabelPosition=bottom;verticalAlign=top;align=center;outlineConnect=0;" vertex="1" parent="1">
          <mxGeometry x="-2200" y="1570" width="220" height="262" as="geometry" />
        </mxCell>
        <mxCell id="OsrXYmDs21O4-yx2xXHt-52" value="" style="shape=mxgraph.cisco.switches.workgroup_switch;html=1;dashed=0;fillColor=#10739E;strokeColor=#ffffff;strokeWidth=2;verticalLabelPosition=bottom;verticalAlign=top;fontFamily=Helvetica;fontSize=36;fontColor=#FFB366" vertex="1" parent="1">
          <mxGeometry x="-2745" y="2082" width="270" height="140" as="geometry" />
        </mxCell>
        <mxCell id="OsrXYmDs21O4-yx2xXHt-53" value="" style="shape=mxgraph.cisco.computers_and_peripherals.printer;sketch=0;html=1;pointerEvents=1;dashed=0;fillColor=#036897;strokeColor=#ffffff;strokeWidth=2;verticalLabelPosition=bottom;verticalAlign=top;align=center;outlineConnect=0;" vertex="1" parent="1">
          <mxGeometry x="-3328" y="2050" width="401" height="204" as="geometry" />
        </mxCell>
        <mxCell id="OsrXYmDs21O4-yx2xXHt-54" value="" style="shape=mxgraph.cisco.computers_and_peripherals.terminal;sketch=0;html=1;pointerEvents=1;dashed=0;fillColor=#036897;strokeColor=#ffffff;strokeWidth=2;verticalLabelPosition=bottom;verticalAlign=top;align=center;outlineConnect=0;" vertex="1" parent="1">
          <mxGeometry x="-2240" y="2057" width="250" height="190" as="geometry" />
        </mxCell>
        <mxCell id="OsrXYmDs21O4-yx2xXHt-55" value="" style="endArrow=classic;startArrow=classic;html=1;rounded=0;strokeWidth=3;entryX=0.5;entryY=0;entryDx=0;entryDy=0;entryPerimeter=0;exitX=0.5;exitY=1;exitDx=0;exitDy=0;exitPerimeter=0;" edge="1" parent="1" source="OsrXYmDs21O4-yx2xXHt-50" target="OsrXYmDs21O4-yx2xXHt-52">
          <mxGeometry width="50" height="50" relative="1" as="geometry">
            <mxPoint x="-2660" y="2623" as="sourcePoint" />
            <mxPoint x="-2610" y="2573" as="targetPoint" />
          </mxGeometry>
        </mxCell>
        <mxCell id="OsrXYmDs21O4-yx2xXHt-56" value="" style="endArrow=classic;startArrow=classic;html=1;rounded=0;strokeColor=#FF0000;strokeWidth=3;entryX=0;entryY=0.5;entryDx=0;entryDy=0;entryPerimeter=0;exitX=1;exitY=0.5;exitDx=0;exitDy=0;exitPerimeter=0;" edge="1" parent="1" source="OsrXYmDs21O4-yx2xXHt-50" target="OsrXYmDs21O4-yx2xXHt-51">
          <mxGeometry width="50" height="50" relative="1" as="geometry">
            <mxPoint x="-2410" y="1704.5" as="sourcePoint" />
            <mxPoint x="-2360" y="1654.5" as="targetPoint" />
          </mxGeometry>
        </mxCell>
        <mxCell id="OsrXYmDs21O4-yx2xXHt-57" value="" style="endArrow=classic;startArrow=classic;html=1;rounded=0;entryX=0.15;entryY=0.5;entryDx=0;entryDy=0;entryPerimeter=0;exitX=0.98;exitY=0.5;exitDx=0;exitDy=0;exitPerimeter=0;strokeWidth=3;strokeColor=#00CC00;" edge="1" parent="1" source="OsrXYmDs21O4-yx2xXHt-52" target="OsrXYmDs21O4-yx2xXHt-54">
          <mxGeometry width="50" height="50" relative="1" as="geometry">
            <mxPoint x="-2320" y="1855" as="sourcePoint" />
            <mxPoint x="-2270" y="1805" as="targetPoint" />
          </mxGeometry>
        </mxCell>
        <mxCell id="OsrXYmDs21O4-yx2xXHt-58" value="" style="endArrow=classic;startArrow=classic;html=1;rounded=0;entryX=0;entryY=0.5;entryDx=0;entryDy=0;entryPerimeter=0;exitX=0.8;exitY=0.5;exitDx=0;exitDy=0;exitPerimeter=0;strokeColor=#00CC00;strokeWidth=3;" edge="1" parent="1" source="OsrXYmDs21O4-yx2xXHt-53" target="OsrXYmDs21O4-yx2xXHt-52">
          <mxGeometry width="50" height="50" relative="1" as="geometry">
            <mxPoint x="-2840" y="1835" as="sourcePoint" />
            <mxPoint x="-2790" y="1785" as="targetPoint" />
          </mxGeometry>
        </mxCell>
        <mxCell id="OsrXYmDs21O4-yx2xXHt-59" value="Здание №3" style="rounded=1;whiteSpace=wrap;html=1;strokeColor=none;fillColor=#BAC8D3;fontSize=24;fontColor=#23445D;align=center;opacity=60;" vertex="1" parent="1">
          <mxGeometry x="-1570" y="1543" width="1570" height="790" as="geometry" />
        </mxCell>
        <mxCell id="OsrXYmDs21O4-yx2xXHt-60" value="" style="shape=mxgraph.cisco.routers.router;sketch=0;html=1;pointerEvents=1;dashed=0;fillColor=#036897;strokeColor=#ffffff;strokeWidth=2;verticalLabelPosition=bottom;verticalAlign=top;align=center;outlineConnect=0;" vertex="1" parent="1">
          <mxGeometry x="-910" y="1614.5" width="220" height="173" as="geometry" />
        </mxCell>
        <mxCell id="OsrXYmDs21O4-yx2xXHt-61" value="" style="shape=mxgraph.cisco.servers.standard_host;sketch=0;html=1;pointerEvents=1;dashed=0;fillColor=#036897;strokeColor=#ffffff;strokeWidth=2;verticalLabelPosition=bottom;verticalAlign=top;align=center;outlineConnect=0;" vertex="1" parent="1">
          <mxGeometry x="-380" y="1570" width="220" height="262" as="geometry" />
        </mxCell>
        <mxCell id="OsrXYmDs21O4-yx2xXHt-62" value="" style="shape=mxgraph.cisco.switches.workgroup_switch;html=1;dashed=0;fillColor=#10739E;strokeColor=#ffffff;strokeWidth=2;verticalLabelPosition=bottom;verticalAlign=top;fontFamily=Helvetica;fontSize=36;fontColor=#FFB366" vertex="1" parent="1">
          <mxGeometry x="-935" y="2042" width="270" height="140" as="geometry" />
        </mxCell>
        <mxCell id="OsrXYmDs21O4-yx2xXHt-63" value="" style="shape=mxgraph.cisco.computers_and_peripherals.printer;sketch=0;html=1;pointerEvents=1;dashed=0;fillColor=#036897;strokeColor=#ffffff;strokeWidth=2;verticalLabelPosition=bottom;verticalAlign=top;align=center;outlineConnect=0;" vertex="1" parent="1">
          <mxGeometry x="-1518" y="2010" width="401" height="204" as="geometry" />
        </mxCell>
        <mxCell id="OsrXYmDs21O4-yx2xXHt-64" value="" style="shape=mxgraph.cisco.computers_and_peripherals.terminal;sketch=0;html=1;pointerEvents=1;dashed=0;fillColor=#036897;strokeColor=#ffffff;strokeWidth=2;verticalLabelPosition=bottom;verticalAlign=top;align=center;outlineConnect=0;" vertex="1" parent="1">
          <mxGeometry x="-413" y="2017" width="250" height="190" as="geometry" />
        </mxCell>
        <mxCell id="OsrXYmDs21O4-yx2xXHt-65" value="" style="endArrow=classic;startArrow=classic;html=1;rounded=0;strokeWidth=3;entryX=0.5;entryY=0;entryDx=0;entryDy=0;entryPerimeter=0;exitX=0.5;exitY=1;exitDx=0;exitDy=0;exitPerimeter=0;" edge="1" parent="1" source="OsrXYmDs21O4-yx2xXHt-60" target="OsrXYmDs21O4-yx2xXHt-62">
          <mxGeometry width="50" height="50" relative="1" as="geometry">
            <mxPoint x="-800" y="2250" as="sourcePoint" />
            <mxPoint x="-800" y="2573" as="targetPoint" />
          </mxGeometry>
        </mxCell>
        <mxCell id="OsrXYmDs21O4-yx2xXHt-66" value="" style="endArrow=classic;startArrow=classic;html=1;rounded=0;strokeColor=#FF0000;strokeWidth=3;entryX=0;entryY=0.5;entryDx=0;entryDy=0;entryPerimeter=0;exitX=1;exitY=0.5;exitDx=0;exitDy=0;exitPerimeter=0;" edge="1" parent="1" source="OsrXYmDs21O4-yx2xXHt-60" target="OsrXYmDs21O4-yx2xXHt-61">
          <mxGeometry width="50" height="50" relative="1" as="geometry">
            <mxPoint x="-600" y="1704.5" as="sourcePoint" />
            <mxPoint x="-550" y="1654.5" as="targetPoint" />
          </mxGeometry>
        </mxCell>
        <mxCell id="OsrXYmDs21O4-yx2xXHt-67" value="" style="endArrow=classic;startArrow=classic;html=1;rounded=0;entryX=0.15;entryY=0.5;entryDx=0;entryDy=0;entryPerimeter=0;exitX=0.98;exitY=0.5;exitDx=0;exitDy=0;exitPerimeter=0;strokeWidth=3;strokeColor=#00CC00;" edge="1" parent="1" source="OsrXYmDs21O4-yx2xXHt-62" target="OsrXYmDs21O4-yx2xXHt-64">
          <mxGeometry width="50" height="50" relative="1" as="geometry">
            <mxPoint x="-510" y="1815" as="sourcePoint" />
            <mxPoint x="-460" y="1765" as="targetPoint" />
          </mxGeometry>
        </mxCell>
        <mxCell id="OsrXYmDs21O4-yx2xXHt-68" value="" style="endArrow=classic;startArrow=classic;html=1;rounded=0;entryX=0;entryY=0.5;entryDx=0;entryDy=0;entryPerimeter=0;exitX=0.8;exitY=0.5;exitDx=0;exitDy=0;exitPerimeter=0;strokeColor=#00CC00;strokeWidth=3;" edge="1" parent="1" source="OsrXYmDs21O4-yx2xXHt-63" target="OsrXYmDs21O4-yx2xXHt-62">
          <mxGeometry width="50" height="50" relative="1" as="geometry">
            <mxPoint x="-1030" y="1795" as="sourcePoint" />
            <mxPoint x="-980" y="1745" as="targetPoint" />
          </mxGeometry>
        </mxCell>
        <mxCell id="OsrXYmDs21O4-yx2xXHt-69" value="" style="endArrow=classic;startArrow=classic;html=1;rounded=0;strokeWidth=3;entryX=0.5;entryY=1;entryDx=0;entryDy=0;entryPerimeter=0;exitX=0.5;exitY=0;exitDx=0;exitDy=0;exitPerimeter=0;" edge="1" parent="1" source="OsrXYmDs21O4-yx2xXHt-60" target="OsrXYmDs21O4-yx2xXHt-8">
          <mxGeometry width="50" height="50" relative="1" as="geometry">
            <mxPoint x="-2810" y="586" as="sourcePoint" />
            <mxPoint x="-720" y="585" as="targetPoint" />
          </mxGeometry>
        </mxCell>
        <mxCell id="OsrXYmDs21O4-yx2xXHt-70" value="" style="endArrow=classic;startArrow=classic;html=1;rounded=0;strokeWidth=3;entryX=0;entryY=1;entryDx=0;entryDy=0;entryPerimeter=0;exitX=0.5;exitY=0;exitDx=0;exitDy=0;exitPerimeter=0;" edge="1" parent="1" source="OsrXYmDs21O4-yx2xXHt-50" target="OsrXYmDs21O4-yx2xXHt-8">
          <mxGeometry width="50" height="50" relative="1" as="geometry">
            <mxPoint x="-1600" y="1625" as="sourcePoint" />
            <mxPoint x="-1350" y="25" as="targetPoint" />
          </mxGeometry>
        </mxCell>
        <mxCell id="OsrXYmDs21O4-yx2xXHt-71" value="" style="endArrow=none;dashed=1;html=1;rounded=0;strokeWidth=3;exitX=1;exitY=0.5;exitDx=0;exitDy=0;exitPerimeter=0;" edge="1" parent="1" source="OsrXYmDs21O4-yx2xXHt-18">
          <mxGeometry width="50" height="50" relative="1" as="geometry">
            <mxPoint x="1070" y="520" as="sourcePoint" />
            <mxPoint x="1090" y="481" as="targetPoint" />
          </mxGeometry>
        </mxCell>
        <mxCell id="OsrXYmDs21O4-yx2xXHt-72" value="&lt;span style=&quot;font-size: 24px;&quot;&gt;20 ШТ&lt;/span&gt;" style="text;html=1;align=center;verticalAlign=middle;resizable=0;points=[];autosize=1;strokeColor=none;fillColor=none;" vertex="1" parent="1">
          <mxGeometry x="1010" y="430" width="90" height="40" as="geometry" />
        </mxCell>
        <mxCell id="OsrXYmDs21O4-yx2xXHt-73" value="" style="endArrow=none;dashed=1;html=1;rounded=0;strokeWidth=3;exitX=1;exitY=0.5;exitDx=0;exitDy=0;exitPerimeter=0;entryX=0.916;entryY=1.032;entryDx=0;entryDy=0;entryPerimeter=0;" edge="1" parent="1" source="OsrXYmDs21O4-yx2xXHt-32" target="OsrXYmDs21O4-yx2xXHt-74">
          <mxGeometry width="50" height="50" relative="1" as="geometry">
            <mxPoint x="-660" y="-1680" as="sourcePoint" />
            <mxPoint x="-570" y="-1685" as="targetPoint" />
          </mxGeometry>
        </mxCell>
        <mxCell id="OsrXYmDs21O4-yx2xXHt-74" value="140 ШТ" style="text;html=1;align=center;verticalAlign=middle;resizable=0;points=[];autosize=1;strokeColor=none;fillColor=none;fontSize=24;" vertex="1" parent="1">
          <mxGeometry x="-655" y="-1727" width="110" height="40" as="geometry" />
        </mxCell>
        <mxCell id="OsrXYmDs21O4-yx2xXHt-75" value="" style="endArrow=none;dashed=1;html=1;rounded=0;strokeWidth=3;exitX=0.5;exitY=0;exitDx=0;exitDy=0;exitPerimeter=0;" edge="1" parent="1" source="OsrXYmDs21O4-yx2xXHt-43">
          <mxGeometry width="50" height="50" relative="1" as="geometry">
            <mxPoint x="-3280" y="-950" as="sourcePoint" />
            <mxPoint x="-3315" y="-1010" as="targetPoint" />
          </mxGeometry>
        </mxCell>
        <mxCell id="OsrXYmDs21O4-yx2xXHt-76" value="79 ШТ" style="text;html=1;align=center;verticalAlign=middle;resizable=0;points=[];autosize=1;strokeColor=none;fillColor=none;fontSize=24;" vertex="1" parent="1">
          <mxGeometry x="-3308" y="-1010" width="90" height="40" as="geometry" />
        </mxCell>
        <mxCell id="OsrXYmDs21O4-yx2xXHt-77" value="" style="endArrow=none;dashed=1;html=1;rounded=0;exitX=1;exitY=0.5;exitDx=0;exitDy=0;exitPerimeter=0;strokeWidth=3;entryX=1.005;entryY=1.057;entryDx=0;entryDy=0;entryPerimeter=0;" edge="1" parent="1" source="OsrXYmDs21O4-yx2xXHt-54" target="OsrXYmDs21O4-yx2xXHt-78">
          <mxGeometry width="50" height="50" relative="1" as="geometry">
            <mxPoint x="-1780" y="2190" as="sourcePoint" />
            <mxPoint x="-1720" y="2152" as="targetPoint" />
          </mxGeometry>
        </mxCell>
        <mxCell id="OsrXYmDs21O4-yx2xXHt-78" value="121 ШТ" style="text;html=1;align=center;verticalAlign=middle;resizable=0;points=[];autosize=1;strokeColor=none;fillColor=none;fontSize=24;" vertex="1" parent="1">
          <mxGeometry x="-1810" y="2110" width="110" height="40" as="geometry" />
        </mxCell>
        <mxCell id="OsrXYmDs21O4-yx2xXHt-79" value="" style="endArrow=none;dashed=1;html=1;rounded=0;exitX=1;exitY=0.5;exitDx=0;exitDy=0;exitPerimeter=0;strokeWidth=3;" edge="1" parent="1" source="OsrXYmDs21O4-yx2xXHt-64">
          <mxGeometry width="50" height="50" relative="1" as="geometry">
            <mxPoint x="130" y="2100" as="sourcePoint" />
            <mxPoint x="190" y="2112" as="targetPoint" />
          </mxGeometry>
        </mxCell>
        <mxCell id="OsrXYmDs21O4-yx2xXHt-80" value="580 ШТ" style="text;html=1;align=center;verticalAlign=middle;resizable=0;points=[];autosize=1;strokeColor=none;fillColor=none;fontSize=24;" vertex="1" parent="1">
          <mxGeometry x="70" y="2077" width="110" height="40" as="geometry" />
        </mxCell>
        <mxCell id="OsrXYmDs21O4-yx2xXHt-81" value="" style="endArrow=none;dashed=1;html=1;rounded=0;strokeWidth=3;" edge="1" parent="1">
          <mxGeometry width="50" height="50" relative="1" as="geometry">
            <mxPoint x="1320" y="-2120" as="sourcePoint" />
            <mxPoint x="1500" y="-2120" as="targetPoint" />
          </mxGeometry>
        </mxCell>
        <mxCell id="OsrXYmDs21O4-yx2xXHt-82" value="100 ШТ" style="text;html=1;align=center;verticalAlign=middle;resizable=0;points=[];autosize=1;strokeColor=none;fillColor=none;fontSize=24;" vertex="1" parent="1">
          <mxGeometry x="1385.75" y="-2160" width="110" height="40" as="geometry" />
        </mxCell>
        <mxCell id="OsrXYmDs21O4-yx2xXHt-83" value="" style="endArrow=none;dashed=1;html=1;rounded=0;strokeWidth=3;exitX=0.8;exitY=0.5;exitDx=0;exitDy=0;exitPerimeter=0;entryX=0.861;entryY=1.058;entryDx=0;entryDy=0;entryPerimeter=0;" edge="1" parent="1" source="OsrXYmDs21O4-yx2xXHt-17" target="OsrXYmDs21O4-yx2xXHt-84">
          <mxGeometry width="50" height="50" relative="1" as="geometry">
            <mxPoint x="850" y="-200" as="sourcePoint" />
            <mxPoint x="1120" y="-238" as="targetPoint" />
          </mxGeometry>
        </mxCell>
        <mxCell id="OsrXYmDs21O4-yx2xXHt-84" value="3 ШТ" style="text;html=1;align=center;verticalAlign=middle;resizable=0;points=[];autosize=1;strokeColor=none;fillColor=none;fontSize=24;" vertex="1" parent="1">
          <mxGeometry x="1015" y="-280" width="80" height="40" as="geometry" />
        </mxCell>
        <mxCell id="OsrXYmDs21O4-yx2xXHt-86" value="" style="endArrow=none;dashed=1;html=1;rounded=0;strokeWidth=3;entryX=0;entryY=0.5;entryDx=0;entryDy=0;entryPerimeter=0;" edge="1" parent="1" target="OsrXYmDs21O4-yx2xXHt-31">
          <mxGeometry width="50" height="50" relative="1" as="geometry">
            <mxPoint x="-2590" y="-1683" as="sourcePoint" />
            <mxPoint x="-2348" y="-1663.83" as="targetPoint" />
          </mxGeometry>
        </mxCell>
        <mxCell id="OsrXYmDs21O4-yx2xXHt-87" value="16 ШТ" style="text;html=1;align=center;verticalAlign=middle;resizable=0;points=[];autosize=1;strokeColor=none;fillColor=none;fontSize=24;" vertex="1" parent="1">
          <mxGeometry x="-2580" y="-1727" width="90" height="40" as="geometry" />
        </mxCell>
        <mxCell id="OsrXYmDs21O4-yx2xXHt-89" value="" style="endArrow=none;dashed=1;html=1;rounded=0;strokeWidth=3;exitX=0.5;exitY=1;exitDx=0;exitDy=0;exitPerimeter=0;" edge="1" parent="1" source="OsrXYmDs21O4-yx2xXHt-42">
          <mxGeometry width="50" height="50" relative="1" as="geometry">
            <mxPoint x="-3335" y="534" as="sourcePoint" />
            <mxPoint x="-3315" y="830" as="targetPoint" />
          </mxGeometry>
        </mxCell>
        <mxCell id="OsrXYmDs21O4-yx2xXHt-90" value="9 ШТ" style="text;html=1;align=center;verticalAlign=middle;resizable=0;points=[];autosize=1;strokeColor=none;fillColor=none;fontSize=24;" vertex="1" parent="1">
          <mxGeometry x="-3303" y="780" width="80" height="40" as="geometry" />
        </mxCell>
        <mxCell id="OsrXYmDs21O4-yx2xXHt-91" value="" style="endArrow=none;dashed=1;html=1;rounded=0;strokeWidth=3;entryX=-0.005;entryY=0.347;entryDx=0;entryDy=0;entryPerimeter=0;" edge="1" parent="1" target="OsrXYmDs21O4-yx2xXHt-63">
          <mxGeometry width="50" height="50" relative="1" as="geometry">
            <mxPoint x="-1710" y="2081" as="sourcePoint" />
            <mxPoint x="-1590" y="2082" as="targetPoint" />
          </mxGeometry>
        </mxCell>
        <mxCell id="OsrXYmDs21O4-yx2xXHt-92" value="65 ШТ" style="text;html=1;align=center;verticalAlign=middle;resizable=0;points=[];autosize=1;strokeColor=none;fillColor=none;fontSize=24;" vertex="1" parent="1">
          <mxGeometry x="-1710" y="2042" width="90" height="40" as="geometry" />
        </mxCell>
        <mxCell id="OsrXYmDs21O4-yx2xXHt-93" value="" style="endArrow=none;dashed=1;html=1;rounded=0;strokeWidth=3;entryX=0;entryY=0.5;entryDx=0;entryDy=0;entryPerimeter=0;" edge="1" parent="1" target="OsrXYmDs21O4-yx2xXHt-53">
          <mxGeometry width="50" height="50" relative="1" as="geometry">
            <mxPoint x="-3610" y="2152" as="sourcePoint" />
            <mxPoint x="-3610" y="2170" as="targetPoint" />
          </mxGeometry>
        </mxCell>
        <mxCell id="OsrXYmDs21O4-yx2xXHt-94" value="14 ШТ" style="text;html=1;align=center;verticalAlign=middle;resizable=0;points=[];autosize=1;strokeColor=none;fillColor=none;fontSize=24;" vertex="1" parent="1">
          <mxGeometry x="-3600" y="2117" width="90" height="40" as="geometry" />
        </mxCell>
        <mxCell id="OsrXYmDs21O4-yx2xXHt-95" value="" style="shape=flexArrow;endArrow=classic;startArrow=classic;html=1;rounded=0;entryX=0.5;entryY=1;entryDx=0;entryDy=0;exitX=0.75;exitY=0;exitDx=0;exitDy=0;strokeWidth=1;" edge="1" parent="1" source="OsrXYmDs21O4-yx2xXHt-59" target="OsrXYmDs21O4-yx2xXHt-5">
          <mxGeometry width="100" height="100" relative="1" as="geometry">
            <mxPoint x="-170" y="1230" as="sourcePoint" />
            <mxPoint x="-70" y="1130" as="targetPoint" />
          </mxGeometry>
        </mxCell>
        <mxCell id="OsrXYmDs21O4-yx2xXHt-96" value="475 М" style="edgeLabel;html=1;align=center;verticalAlign=middle;resizable=0;points=[];fontSize=24;" vertex="1" connectable="0" parent="OsrXYmDs21O4-yx2xXHt-95">
          <mxGeometry x="0.0577" y="-2" relative="1" as="geometry">
            <mxPoint as="offset" />
          </mxGeometry>
        </mxCell>
        <mxCell id="OsrXYmDs21O4-yx2xXHt-97" value="" style="shape=flexArrow;endArrow=classic;startArrow=classic;html=1;rounded=0;entryX=0;entryY=0.25;entryDx=0;entryDy=0;exitX=1;exitY=0.25;exitDx=0;exitDy=0;" edge="1" parent="1" source="OsrXYmDs21O4-yx2xXHt-49" target="OsrXYmDs21O4-yx2xXHt-59">
          <mxGeometry width="100" height="100" relative="1" as="geometry">
            <mxPoint x="-1720" y="1540" as="sourcePoint" />
            <mxPoint x="-1620" y="1440" as="targetPoint" />
          </mxGeometry>
        </mxCell>
        <mxCell id="OsrXYmDs21O4-yx2xXHt-98" value="475 М" style="edgeLabel;html=1;align=center;verticalAlign=middle;resizable=0;points=[];fontSize=24;" vertex="1" connectable="0" parent="OsrXYmDs21O4-yx2xXHt-97">
          <mxGeometry x="0.02" y="-1" relative="1" as="geometry">
            <mxPoint as="offset" />
          </mxGeometry>
        </mxCell>
        <mxCell id="OsrXYmDs21O4-yx2xXHt-99" value="" style="shape=flexArrow;endArrow=classic;startArrow=classic;html=1;rounded=0;entryX=1;entryY=0.25;entryDx=0;entryDy=0;exitX=0.5;exitY=0;exitDx=0;exitDy=0;" edge="1" parent="1" source="OsrXYmDs21O4-yx2xXHt-49" target="OsrXYmDs21O4-yx2xXHt-38">
          <mxGeometry width="100" height="100" relative="1" as="geometry">
            <mxPoint x="-2930" y="1180" as="sourcePoint" />
            <mxPoint x="-2830" y="1080" as="targetPoint" />
          </mxGeometry>
        </mxCell>
        <mxCell id="OsrXYmDs21O4-yx2xXHt-100" value="475 М" style="edgeLabel;html=1;align=center;verticalAlign=middle;resizable=0;points=[];fontSize=24;" vertex="1" connectable="0" parent="OsrXYmDs21O4-yx2xXHt-99">
          <mxGeometry x="0.017" y="-1" relative="1" as="geometry">
            <mxPoint as="offset" />
          </mxGeometry>
        </mxCell>
        <mxCell id="OsrXYmDs21O4-yx2xXHt-101" value="" style="shape=flexArrow;endArrow=classic;startArrow=classic;html=1;rounded=0;entryX=0;entryY=0.75;entryDx=0;entryDy=0;exitX=0;exitY=0.25;exitDx=0;exitDy=0;" edge="1" parent="1" source="OsrXYmDs21O4-yx2xXHt-38" target="OsrXYmDs21O4-yx2xXHt-4">
          <mxGeometry width="100" height="100" relative="1" as="geometry">
            <mxPoint x="-2570" y="-1030" as="sourcePoint" />
            <mxPoint x="-2470" y="-1130" as="targetPoint" />
          </mxGeometry>
        </mxCell>
        <mxCell id="OsrXYmDs21O4-yx2xXHt-102" value="475 М" style="edgeLabel;html=1;align=center;verticalAlign=middle;resizable=0;points=[];fontSize=24;" vertex="1" connectable="0" parent="OsrXYmDs21O4-yx2xXHt-101">
          <mxGeometry x="0.0611" y="-3" relative="1" as="geometry">
            <mxPoint y="-1" as="offset" />
          </mxGeometry>
        </mxCell>
        <mxCell id="OsrXYmDs21O4-yx2xXHt-103" value="" style="shape=flexArrow;endArrow=classic;startArrow=classic;html=1;rounded=0;entryX=1;entryY=0.75;entryDx=0;entryDy=0;exitX=0.25;exitY=0;exitDx=0;exitDy=0;" edge="1" parent="1" source="OsrXYmDs21O4-yx2xXHt-5" target="OsrXYmDs21O4-yx2xXHt-4">
          <mxGeometry width="100" height="100" relative="1" as="geometry">
            <mxPoint x="-560" y="-1100" as="sourcePoint" />
            <mxPoint x="-460" y="-1200" as="targetPoint" />
          </mxGeometry>
        </mxCell>
        <mxCell id="OsrXYmDs21O4-yx2xXHt-104" value="475 М" style="edgeLabel;html=1;align=center;verticalAlign=middle;resizable=0;points=[];fontSize=24;" vertex="1" connectable="0" parent="OsrXYmDs21O4-yx2xXHt-103">
          <mxGeometry x="0.0005" relative="1" as="geometry">
            <mxPoint as="offset" />
          </mxGeometry>
        </mxCell>
        <mxCell id="OsrXYmDs21O4-yx2xXHt-105" value="" style="rounded=1;whiteSpace=wrap;html=1;strokeColor=#82b366;fillColor=#d5e8d4;fontSize=24;align=center;opacity=60;" vertex="1" parent="1">
          <mxGeometry x="320" y="-3270" width="833" height="1780" as="geometry" />
        </mxCell>
        <mxCell id="OsrXYmDs21O4-yx2xXHt-106" value="" style="shape=mxgraph.cisco.switches.layer_3_switch;html=1;dashed=0;fillColor=#10739E;strokeColor=#ffffff;strokeWidth=2;verticalLabelPosition=bottom;verticalAlign=top;fontFamily=Helvetica;fontSize=36;fontColor=#FFB366" vertex="1" parent="1">
          <mxGeometry x="373" y="-2700" width="200" height="200" as="geometry" />
        </mxCell>
        <mxCell id="OsrXYmDs21O4-yx2xXHt-107" value="" style="shape=mxgraph.cisco.switches.workgroup_switch;html=1;dashed=0;fillColor=#10739E;strokeColor=#ffffff;strokeWidth=2;verticalLabelPosition=bottom;verticalAlign=top;fontFamily=Helvetica;fontSize=36;fontColor=#FFB366" vertex="1" parent="1">
          <mxGeometry x="333" y="-2380" width="270" height="140" as="geometry" />
        </mxCell>
        <mxCell id="OsrXYmDs21O4-yx2xXHt-108" value="" style="shape=mxgraph.cisco.routers.router;sketch=0;html=1;pointerEvents=1;dashed=0;fillColor=#036897;strokeColor=#ffffff;strokeWidth=2;verticalLabelPosition=bottom;verticalAlign=top;align=center;outlineConnect=0;" vertex="1" parent="1">
          <mxGeometry x="343" y="-2120" width="250" height="173" as="geometry" />
        </mxCell>
        <mxCell id="OsrXYmDs21O4-yx2xXHt-109" value="" style="shape=mxgraph.cisco.computers_and_peripherals.terminal;sketch=0;html=1;pointerEvents=1;dashed=0;fillColor=#036897;strokeColor=#ffffff;strokeWidth=2;verticalLabelPosition=bottom;verticalAlign=top;align=center;outlineConnect=0;" vertex="1" parent="1">
          <mxGeometry x="333" y="-1820" width="250" height="190" as="geometry" />
        </mxCell>
        <mxCell id="OsrXYmDs21O4-yx2xXHt-110" value="" style="shape=mxgraph.cisco.computers_and_peripherals.printer;sketch=0;html=1;pointerEvents=1;dashed=0;fillColor=#036897;strokeColor=#ffffff;strokeWidth=2;verticalLabelPosition=bottom;verticalAlign=top;align=center;outlineConnect=0;" vertex="1" parent="1">
          <mxGeometry x="343" y="-2992" width="401" height="204" as="geometry" />
        </mxCell>
        <mxCell id="OsrXYmDs21O4-yx2xXHt-111" value="МФУ" style="text;html=1;strokeColor=none;fillColor=none;align=center;verticalAlign=middle;whiteSpace=wrap;rounded=0;fontSize=24;" vertex="1" parent="1">
          <mxGeometry x="873" y="-2905" width="60" height="30" as="geometry" />
        </mxCell>
        <mxCell id="OsrXYmDs21O4-yx2xXHt-112" value="КОММУТАТОР УРОВНЯ ЯДРА" style="text;html=1;strokeColor=none;fillColor=none;align=center;verticalAlign=middle;whiteSpace=wrap;rounded=0;fontSize=24;" vertex="1" parent="1">
          <mxGeometry x="663" y="-2610" width="440" height="30" as="geometry" />
        </mxCell>
        <mxCell id="OsrXYmDs21O4-yx2xXHt-113" value="КОММУТАТОР УРОВНЯ ДОСТУПА" style="text;html=1;strokeColor=none;fillColor=none;align=center;verticalAlign=middle;whiteSpace=wrap;rounded=0;fontSize=24;" vertex="1" parent="1">
          <mxGeometry x="663" y="-2340" width="440" height="30" as="geometry" />
        </mxCell>
        <mxCell id="OsrXYmDs21O4-yx2xXHt-114" value="КОММУТАТОР УРОВНЯ РАСПРЕДЕЛЕНИЯ" style="text;html=1;strokeColor=none;fillColor=none;align=center;verticalAlign=middle;whiteSpace=wrap;rounded=0;fontSize=24;" vertex="1" parent="1">
          <mxGeometry x="633" y="-2048.5" width="500" height="30" as="geometry" />
        </mxCell>
        <mxCell id="OsrXYmDs21O4-yx2xXHt-115" value="АРМ" style="text;html=1;strokeColor=none;fillColor=none;align=center;verticalAlign=middle;whiteSpace=wrap;rounded=0;fontSize=24;" vertex="1" parent="1">
          <mxGeometry x="853" y="-1750" width="60" height="30" as="geometry" />
        </mxCell>
        <mxCell id="OsrXYmDs21O4-yx2xXHt-116" value="ФИЗИЧЕСКИЕ УСТРОЙСТВА" style="text;html=1;strokeColor=none;fillColor=none;align=center;verticalAlign=middle;whiteSpace=wrap;rounded=0;fontSize=24;" vertex="1" parent="1">
          <mxGeometry x="513.25" y="-3200" width="446.5" height="30" as="geometry" />
        </mxCell>
        <mxCell id="OsrXYmDs21O4-yx2xXHt-117" value="" style="rounded=1;whiteSpace=wrap;html=1;strokeColor=#9673a6;fillColor=#e1d5e7;fontSize=24;align=center;opacity=60;" vertex="1" parent="1">
          <mxGeometry x="1244" y="-3270" width="730" height="790" as="geometry" />
        </mxCell>
        <mxCell id="OsrXYmDs21O4-yx2xXHt-118" value="ТИПЫ ИСПОЛЬЗУЕМЫХ КАБЕЛЕЙ" style="text;html=1;strokeColor=none;fillColor=none;align=center;verticalAlign=middle;whiteSpace=wrap;rounded=0;fontSize=24;" vertex="1" parent="1">
          <mxGeometry x="1385.75" y="-3200" width="446.5" height="30" as="geometry" />
        </mxCell>
        <mxCell id="OsrXYmDs21O4-yx2xXHt-120" value="" style="endArrow=classic;startArrow=classic;html=1;rounded=0;strokeWidth=3;" edge="1" parent="1">
          <mxGeometry width="50" height="50" relative="1" as="geometry">
            <mxPoint x="1333" y="-3010" as="sourcePoint" />
            <mxPoint x="1533" y="-3010" as="targetPoint" />
          </mxGeometry>
        </mxCell>
        <mxCell id="OsrXYmDs21O4-yx2xXHt-122" value="" style="endArrow=classic;startArrow=classic;html=1;rounded=0;strokeWidth=3;strokeColor=#00CC00;" edge="1" parent="1">
          <mxGeometry width="50" height="50" relative="1" as="geometry">
            <mxPoint x="1333" y="-2610" as="sourcePoint" />
            <mxPoint x="1533" y="-2610" as="targetPoint" />
          </mxGeometry>
        </mxCell>
        <mxCell id="OsrXYmDs21O4-yx2xXHt-123" value="" style="endArrow=classic;startArrow=classic;html=1;rounded=0;strokeWidth=3;strokeColor=#FF0000;" edge="1" parent="1">
          <mxGeometry width="50" height="50" relative="1" as="geometry">
            <mxPoint x="1333" y="-2810" as="sourcePoint" />
            <mxPoint x="1533" y="-2810" as="targetPoint" />
          </mxGeometry>
        </mxCell>
        <mxCell id="OsrXYmDs21O4-yx2xXHt-124" value="ПОДКЛЮЧЕНИЕ СКОРОСТЬЮ 1000 BASE-T" style="text;html=1;strokeColor=none;fillColor=none;align=center;verticalAlign=middle;whiteSpace=wrap;rounded=0;fontSize=24;" vertex="1" parent="1">
          <mxGeometry x="1553" y="-2630" width="400" height="30" as="geometry" />
        </mxCell>
        <mxCell id="OsrXYmDs21O4-yx2xXHt-125" value="ОПТИЧЕСКОЕ ПОДКЛЮЧЕНИЕ СКОРОСТЬЮ 40GE" style="text;html=1;strokeColor=none;fillColor=none;align=center;verticalAlign=middle;whiteSpace=wrap;rounded=0;fontSize=24;" vertex="1" parent="1">
          <mxGeometry x="1553" y="-2830" width="400" height="30" as="geometry" />
        </mxCell>
        <mxCell id="OsrXYmDs21O4-yx2xXHt-126" value="ОПТИЧЕСКОЕ ПОДКЛЮЧЕНИЕ СКОРОСТЬЮ 10GE" style="text;html=1;strokeColor=none;fillColor=none;align=center;verticalAlign=middle;whiteSpace=wrap;rounded=0;fontSize=24;" vertex="1" parent="1">
          <mxGeometry x="1553" y="-3030" width="400" height="30" as="geometry" />
        </mxCell>
        <mxCell id="OsrXYmDs21O4-yx2xXHt-128" value="ТИПЫ СТРЕЛОК" style="text;html=1;strokeColor=none;fillColor=none;align=center;verticalAlign=middle;whiteSpace=wrap;rounded=0;fontSize=24;" vertex="1" parent="1">
          <mxGeometry x="1370" y="-2270" width="446.5" height="30" as="geometry" />
        </mxCell>
        <mxCell id="OsrXYmDs21O4-yx2xXHt-129" value="ОБОЗНАЧЕНИЕ КОЛ-ВА УСТРОЙСТВ" style="text;html=1;strokeColor=none;fillColor=none;align=center;verticalAlign=middle;whiteSpace=wrap;rounded=0;fontSize=24;" vertex="1" parent="1">
          <mxGeometry x="1506.5" y="-2150" width="446.5" height="30" as="geometry" />
        </mxCell>
        <mxCell id="OsrXYmDs21O4-yx2xXHt-131" value="" style="shape=flexArrow;endArrow=classic;startArrow=classic;html=1;rounded=0;exitX=0.75;exitY=0;exitDx=0;exitDy=0;strokeWidth=1;" edge="1" parent="1">
          <mxGeometry width="100" height="100" relative="1" as="geometry">
            <mxPoint x="1286.5" y="-2010" as="sourcePoint" />
            <mxPoint x="1506.5" y="-2009" as="targetPoint" />
          </mxGeometry>
        </mxCell>
        <mxCell id="OsrXYmDs21O4-yx2xXHt-132" value="475 М" style="edgeLabel;html=1;align=center;verticalAlign=middle;resizable=0;points=[];fontSize=24;" vertex="1" connectable="0" parent="OsrXYmDs21O4-yx2xXHt-131">
          <mxGeometry x="0.0577" y="-2" relative="1" as="geometry">
            <mxPoint as="offset" />
          </mxGeometry>
        </mxCell>
        <mxCell id="OsrXYmDs21O4-yx2xXHt-133" value="ОБОЗНАЧЕНИЕ РАССТ. МЕЖДУ ЗДАНИЯМИ" style="text;html=1;strokeColor=none;fillColor=none;align=center;verticalAlign=middle;whiteSpace=wrap;rounded=0;fontSize=24;" vertex="1" parent="1">
          <mxGeometry x="1506.5" y="-2018.5" width="446.5" height="30" as="geometry" />
        </mxCell>
        <mxCell id="OsrXYmDs21O4-yx2xXHt-134" value="" style="endArrow=none;dashed=1;html=1;rounded=0;strokeWidth=3;exitX=1;exitY=0.5;exitDx=0;exitDy=0;exitPerimeter=0;" edge="1" parent="1" source="OsrXYmDs21O4-yx2xXHt-9">
          <mxGeometry width="50" height="50" relative="1" as="geometry">
            <mxPoint x="-10" y="-460" as="sourcePoint" />
            <mxPoint x="1100" y="-460" as="targetPoint" />
          </mxGeometry>
        </mxCell>
        <mxCell id="OsrXYmDs21O4-yx2xXHt-135" value="4 ШТ" style="text;html=1;align=center;verticalAlign=middle;resizable=0;points=[];autosize=1;strokeColor=none;fillColor=none;fontSize=24;" vertex="1" parent="1">
          <mxGeometry x="1000" y="-500" width="80" height="40" as="geometry" />
        </mxCell>
        <mxCell id="OsrXYmDs21O4-yx2xXHt-136" value="" style="endArrow=none;dashed=1;html=1;rounded=0;strokeWidth=3;exitX=1;exitY=0.5;exitDx=0;exitDy=0;exitPerimeter=0;" edge="1" parent="1" source="OsrXYmDs21O4-yx2xXHt-61">
          <mxGeometry width="50" height="50" relative="1" as="geometry">
            <mxPoint x="-150" y="1690" as="sourcePoint" />
            <mxPoint x="210" y="1701" as="targetPoint" />
          </mxGeometry>
        </mxCell>
        <mxCell id="OsrXYmDs21O4-yx2xXHt-137" value="58 ШТ" style="text;html=1;align=center;verticalAlign=middle;resizable=0;points=[];autosize=1;strokeColor=none;fillColor=none;fontSize=24;" vertex="1" parent="1">
          <mxGeometry x="110" y="1660" width="90" height="40" as="geometry" />
        </mxCell>
        <mxCell id="OsrXYmDs21O4-yx2xXHt-138" value="" style="endArrow=none;dashed=1;html=1;rounded=0;strokeWidth=3;exitX=1;exitY=0.5;exitDx=0;exitDy=0;exitPerimeter=0;" edge="1" parent="1" source="OsrXYmDs21O4-yx2xXHt-51">
          <mxGeometry width="50" height="50" relative="1" as="geometry">
            <mxPoint x="-2000" y="1681" as="sourcePoint" />
            <mxPoint x="-1640" y="1701" as="targetPoint" />
          </mxGeometry>
        </mxCell>
        <mxCell id="OsrXYmDs21O4-yx2xXHt-139" value="12 ШТ" style="text;html=1;align=center;verticalAlign=middle;resizable=0;points=[];autosize=1;strokeColor=none;fillColor=none;fontSize=24;" vertex="1" parent="1">
          <mxGeometry x="-1744" y="1660" width="90" height="40" as="geometry" />
        </mxCell>
        <mxCell id="OsrXYmDs21O4-yx2xXHt-140" value="" style="endArrow=none;dashed=1;html=1;rounded=0;strokeWidth=3;exitX=1;exitY=0.5;exitDx=0;exitDy=0;exitPerimeter=0;" edge="1" parent="1" source="OsrXYmDs21O4-yx2xXHt-40">
          <mxGeometry width="50" height="50" relative="1" as="geometry">
            <mxPoint x="-2670" y="-639" as="sourcePoint" />
            <mxPoint x="-2470" y="-631" as="targetPoint" />
          </mxGeometry>
        </mxCell>
        <mxCell id="OsrXYmDs21O4-yx2xXHt-141" value="8 ШТ" style="text;html=1;align=center;verticalAlign=middle;resizable=0;points=[];autosize=1;strokeColor=none;fillColor=none;fontSize=24;" vertex="1" parent="1">
          <mxGeometry x="-2566" y="-670" width="80" height="40" as="geometry" />
        </mxCell>
        <mxCell id="OsrXYmDs21O4-yx2xXHt-142" value="" style="endArrow=none;dashed=1;html=1;rounded=0;strokeWidth=3;exitX=0.5;exitY=1;exitDx=0;exitDy=0;exitPerimeter=0;" edge="1" parent="1" source="OsrXYmDs21O4-yx2xXHt-29">
          <mxGeometry width="50" height="50" relative="1" as="geometry">
            <mxPoint x="-1215" y="-1011" as="sourcePoint" />
            <mxPoint x="-1055" y="-930" as="targetPoint" />
          </mxGeometry>
        </mxCell>
        <mxCell id="OsrXYmDs21O4-yx2xXHt-143" value="28 ШТ" style="text;html=1;align=center;verticalAlign=middle;resizable=0;points=[];autosize=1;strokeColor=none;fillColor=none;fontSize=24;" vertex="1" parent="1">
          <mxGeometry x="-1055" y="-970" width="90" height="40" as="geometry" />
        </mxCell>
      </root>
    </mxGraphModel>
  </diagram>
</mxfile>
